<svg xmlns="http://www.w3.org/2000/svg" width="45" height="45" viewBox="0 0 45 45">
    <defs>
        <clipPath id="prefix__clip-path">
            <path id="prefix__Rectangle_17" d="M0 0H45V45H0z" class="prefix__cls-1" data-name="Rectangle 17"/>
        </clipPath>
        <style>
            .prefix__cls-1{fill:#707070}
        </style>
    </defs>
    <g id="prefix__Mask_Group_5" data-name="Mask Group 5">
        <g id="prefix__pierna-de-pollo" transform="translate(0 .146)">
            <g id="prefix__Group_52" data-name="Group 52">
                <g id="prefix__Group_51" data-name="Group 51">
                    <path id="prefix__Path_23" d="M41.981 34.649a3.363 3.363 0 00-2.46.722l-4.814-4.836c.819-3.522-.559-8.331-2.106-12.192C30.385 12.811 26.767 6.776 24 3.994A13.078 13.078 0 0014.248.155a14.83 14.83 0 00-14.24 14.3 13.222 13.222 0 003.822 9.797c3.67 3.689 16.144 10.982 24.139 10.982a9.809 9.809 0 002.6-.325l4.706 4.727a3.41 3.41 0 00.251 4.517 3.366 3.366 0 004.775 0 3.4 3.4 0 00.97-2.764 3.389 3.389 0 00.711-6.741zm-11.429-1.3a.712.712 0 00-.091.038c-6.241 2.136-20.952-5.566-25.57-10.2A11.727 11.727 0 011.509 14.5a13.326 13.326 0 0112.78-12.838h.343a11.591 11.591 0 018.3 3.4c2.267 2.278 5.837 7.765 8.272 13.845 2.613 6.523 2.94 11.441.9 13.492a4.162 4.162 0 01-1.552.953zm12.4 6a1.883 1.883 0 01-2.474.156 1.362 1.362 0 01-.18-.156.748.748 0 00-1.061 0 .756.756 0 000 1.066 1.413 1.413 0 01.14.163l.035.045a1.889 1.889 0 01-.383 2.636 1.869 1.869 0 01-2.624-.385 1.89 1.89 0 01.179-2.458 1.284 1.284 0 01.178-.155.755.755 0 00.108-1.156l-4.79-4.812a5.2 5.2 0 001.088-.83 5.407 5.407 0 00.979-1.359L39 36.976a.748.748 0 001.151-.109 1.276 1.276 0 01.154-.179 1.916 1.916 0 012.654 0 1.894 1.894 0 01-.003 2.666z" class="prefix__cls-1" data-name="Path 23" transform="translate(0 -.146)"/>
                </g>
            </g>
            <g id="prefix__Group_54" data-name="Group 54" transform="translate(25.795 30.215)">
                <g id="prefix__Group_53" data-name="Group 53">
                    <path id="prefix__Path_24" d="M40.9 44.264h-1.529a1.084 1.084 0 100 2.168H40.9a1.084 1.084 0 000-2.168z" class="prefix__cls-1" data-name="Path 24" transform="translate(-38.287 -44.264)"/>
                </g>
            </g>
            <g id="prefix__Group_56" data-name="Group 56" transform="translate(18.048 27.591)">
                <g id="prefix__Group_55" data-name="Group 55">
                    <path id="prefix__Path_25" d="M29.406 40.432h-1.533a1.084 1.084 0 100 2.168h1.533a1.084 1.084 0 100-2.168z" class="prefix__cls-1" data-name="Path 25" transform="translate(-26.789 -40.432)"/>
                </g>
            </g>
            <g id="prefix__Group_58" data-name="Group 58" transform="translate(21.147 24.44)">
                <g id="prefix__Group_57" data-name="Group 57">
                    <path id="prefix__Path_26" d="M34.005 35.832h-1.533a1.084 1.084 0 100 2.168h1.533a1.084 1.084 0 100-2.168z" class="prefix__cls-1" data-name="Path 26" transform="translate(-31.388 -35.832)"/>
                </g>
            </g>
            <g id="prefix__Group_60" data-name="Group 60" transform="translate(24.246 21.29)">
                <g id="prefix__Group_59" data-name="Group 59">
                    <path id="prefix__Path_27" d="M38.605 31.233h-1.533a1.084 1.084 0 000 2.168H38.6a1.084 1.084 0 001.084-1.084 1.084 1.084 0 00-1.079-1.084z" class="prefix__cls-1" data-name="Path 27" transform="translate(-35.988 -31.233)"/>
                </g>
            </g>
            <g id="prefix__Group_62" data-name="Group 62" transform="translate(26.828 18.666)">
                <g id="prefix__Group_61" data-name="Group 61">
                    <path id="prefix__Path_28" d="M42.438 27.4H40.9a1.084 1.084 0 000 2.168h1.533a1.084 1.084 0 001.084-1.084 1.084 1.084 0 00-1.079-1.084z" class="prefix__cls-1" data-name="Path 28" transform="translate(-39.821 -27.4)"/>
                </g>
            </g>
            <g id="prefix__Group_64" data-name="Group 64" transform="translate(30.28 25.715)">
                <g id="prefix__Group_63" data-name="Group 63">
                    <path id="prefix__Path_29" d="M45.5 38.132a1.084 1.084 0 00-1.084 1.084v1.533a1.084 1.084 0 102.168 0v-1.533a1.084 1.084 0 00-1.084-1.084z" class="prefix__cls-1" data-name="Path 29" transform="translate(-44.42 -38.132)"/>
                </g>
            </g>
            <g id="prefix__Group_66" data-name="Group 66" transform="translate(22.442 28.309)">
                <g id="prefix__Group_65" data-name="Group 65">
                    <path id="prefix__Path_30" d="M34.006 41.965a1.084 1.084 0 00-1.084 1.084v1.533a1.084 1.084 0 102.168 0v-1.533a1.084 1.084 0 00-1.084-1.084z" class="prefix__cls-1" data-name="Path 30" transform="translate(-32.921 -41.965)"/>
                </g>
            </g>
            <g id="prefix__Group_68" data-name="Group 68" transform="translate(26.1 24.676)">
                <g id="prefix__Group_67" data-name="Group 67">
                    <path id="prefix__Path_31" d="M39.371 36.6a1.084 1.084 0 00-1.084 1.084v1.534a1.084 1.084 0 102.168 0v-1.536a1.084 1.084 0 00-1.084-1.082z" class="prefix__cls-1" data-name="Path 31" transform="translate(-38.287 -36.598)"/>
                </g>
            </g>
            <g id="prefix__Group_70" data-name="Group 70" transform="translate(29.235 21.563)">
                <g id="prefix__Group_69" data-name="Group 69">
                    <path id="prefix__Path_32" d="M43.971 32a1.084 1.084 0 00-1.084 1.084v1.533a1.084 1.084 0 102.168 0v-1.534A1.084 1.084 0 0043.971 32z" class="prefix__cls-1" data-name="Path 32" transform="translate(-42.887 -31.999)"/>
                </g>
            </g>
        </g>
    </g>
</svg>
