<svg xmlns="http://www.w3.org/2000/svg" width="45" height="45" viewBox="0 0 45 45">
    <defs>
        <clipPath id="prefix__clip-path">
            <path id="prefix__Rectangle_17" d="M0 0H45V45H0z" class="prefix__cls-1" data-name="Rectangle 17"/>
        </clipPath>
        <style>
            .prefix__cls-1{fill:#707070}
        </style>
    </defs>
    <g id="prefix__Mask_Group_8" data-name="Mask Group 8">
        <g id="prefix__lata" transform="translate(9.88)">
            <path id="prefix__Path_40" d="M23.859 13.07a38.438 38.438 0 00-5.282-6.406 38.442 38.442 0 00-6.406-5.282C9.85-.067 8.322-.373 7.5.447c-.86.86-.475 2.508 1.177 5.038l.195.3 2.314.331-1.05 1.4.388.477c.849 1.046 1.8 2.094 2.81 3.125-.371-.015-.742-.033-1.111-.033C5.256 11.084 0 13.458 0 16.605v22.873C0 42.626 5.256 45 12.226 45s12.226-2.374 12.226-5.522v-21.5a1.377 1.377 0 00.343-.242c.82-.82.513-2.347-.936-4.667zm-11.633-.408a26.045 26.045 0 012.846.156l.172.156q.207.189.42.38c.129.115.256.23.387.345q.339.3.69.592c.107.09.215.177.323.266q.276.227.555.448l.256.2c.567.442 1.139.859 1.7 1.235l.156.1c.221.145.439.281.655.411.081.049.163.1.243.145.185.106.367.2.547.3.206.107.4.2.6.288.087.038.175.08.259.114.057.023.118.055.173.076-1.133 1.12-3.681 2.136-7.084 2.517-.146.016-.29.033-.439.047s-.3.025-.446.036c-.2.015-.409.028-.617.038-.121.006-.241.013-.364.018-.339.012-.683.021-1.036.021-6.275 0-10.648-2.078-10.648-3.944s4.374-3.945 10.649-3.945zM1.577 27.749c.582.2 2.234.638 2.234.638 5.251 1.231 5.926 1.39 6.449 5.627a1.589 1.589 0 01-.534 1.567c-.433.3-2.241 1.076-7.371-1.576-.27-.139-.528-.283-.778-.431v-5.826zm21.3 11.731c0 1.865-4.373 3.944-10.648 3.944S1.577 41.345 1.577 39.48v-.965c2.139 1.927 6.206 3.291 10.648 3.291s8.509-1.365 10.648-3.291zm0-3.944c0 1.89-4.472 4.691-10.648 4.691s-10.648-2.8-10.648-4.691v-.158l.054.029c3.048 1.574 5.179 2.1 6.667 2.1a3.977 3.977 0 002.329-.629 3.064 3.064 0 001.2-3.055c-.649-5.269-2.471-5.733-7.706-6.962 0 0-1.872-.54-2.541-.785V23.3c2.056 1.66 5.962 2.73 10.641 2.73s8.586-1.07 10.649-2.73zm0-15.028c0 1.866-4.373 3.944-10.648 3.944S1.577 22.374 1.577 20.509V19.4c.044.036.1.066.146.1q.27.206.577.4c.084.052.166.1.253.155.255.148.524.289.811.424.038.017.071.037.11.055.327.149.678.287 1.044.417.1.037.21.07.316.106q.423.141.876.265l.363.1c.386.1.782.187 1.2.265.03.005.058.013.089.019.442.082.9.149 1.374.208.136.017.274.031.412.046q.537.058 1.093.1c.148.01.294.021.443.028.506.026 1.018.044 1.544.044.505 0 1-.018 1.487-.043.151-.008.3-.016.448-.026.39-.027.774-.06 1.15-.1.256-.027.5-.062.753-.1.206-.029.411-.059.611-.093.263-.043.52-.09.772-.141l.119-.026c.583-.123 1.134-.264 1.658-.424l.072-.022a13.274 13.274 0 002.217-.9l.078-.04a8.317 8.317 0 001.283-.815zm.792-3.907l-.125-.007c-1.1-.064-3.938-1.689-7.582-5.106l-.188-.177c-.305-.29-.615-.59-.931-.906-.966-.966-1.869-1.951-2.693-2.933l1.9-2.543-4.24-.606c-1.143-1.818-1.185-2.561-1.17-2.75.838-.144 4.317 1.7 8.822 6.205s6.364 8.008 6.2 8.823zm0 0" class="prefix__cls-1" data-name="Path 40"/>
            <path id="prefix__Path_41" d="M9.513 19.518l.782 1.369-5.52 3.155-.782-1.369zm5.56 1.342l-7.1 4.732-.873-1.313 7.1-4.732zm3.192.764l-6.31 4.733-.946-1.257 6.31-4.733zm2.386 1.562l-3.944 3.155-.986-1.233 3.944-3.155zm0 0" class="prefix__cls-1" data-name="Path 41" transform="translate(-1.229 -6.005)"/>
        </g>
    </g>
</svg>
