<svg xmlns="http://www.w3.org/2000/svg" width="45" height="45" viewBox="0 0 45 45">
    <defs>
        <clipPath id="prefix__clip-path">
            <path id="prefix__Rectangle_17" d="M0 0H45V45H0z" data-name="Rectangle 17" style="stroke:#707070;fill:#707070"/>
        </clipPath>
        <style>
            .prefix__cls-3{fill:#707070}
        </style>
    </defs>
    <g id="prefix__Mask_Group_6" data-name="Mask Group 6">
        <g id="prefix__manzana" transform="translate(4.037 .265)">
            <path id="prefix__Path_33" d="M32.272 13.555c-3.313-2.55-8-1.844-11.722-.944a9.435 9.435 0 01-1.826.242 14.709 14.709 0 00-.368-1.44l2.873-.419A8.262 8.262 0 0028.3 4.08l.424-2.786a.733.733 0 00.046-.3L28.918 0l-4.17.607a8.263 8.263 0 00-7.069 6.915l-.25 1.643a9.07 9.07 0 00-3.771-3.884.778.778 0 00-1.042.31.745.745 0 00.317 1.019 8.965 8.965 0 014.21 6.194 9.3 9.3 0 01-1.067-.192c-3.717-.9-8.411-1.607-11.722.944C1.389 15.84-.037 20.361 0 27.377a19.917 19.917 0 007.42 14.541c2.867 2.232 5.951 3.068 8.912 2.414a9.246 9.246 0 013.961 0 9.171 9.171 0 001.978.216 11.315 11.315 0 006.934-2.63 19.922 19.922 0 007.42-14.541c.038-7.017-1.387-11.537-4.354-13.821zM21 9.506l-.675.1L26.876 3.2l-.1.66A6.745 6.745 0 0121 9.506zM24.974 2.1l1-.146-6.922 6.769.149-.98A6.747 6.747 0 0124.974 2.1zm3.275 38.64a9.244 9.244 0 01-7.616 2.122 10.86 10.86 0 00-4.638 0 9.256 9.256 0 01-7.616-2.122c-3.938-3.066-6.814-8.688-6.839-13.372-.035-6.521 1.2-10.653 3.767-12.63 2.176-1.675 5.385-1.879 10.4-.665a10.988 10.988 0 001.7.256c.044.385.073.765.085 1.134a.761.761 0 00.768.728h.025a.76.76 0 00.745-.776c-.011-.348-.039-.708-.077-1.07a11.061 11.061 0 001.968-.272c5.017-1.213 8.226-1.008 10.4.665 2.57 1.978 3.8 6.11 3.767 12.631-.024 4.681-2.9 10.3-6.84 13.37zm0 0" class="prefix__cls-3" data-name="Path 33"/>
            <path id="prefix__Path_34" d="M12.415 22.169c-3.818 0-6.924 3.376-6.924 7.526a.77.77 0 001.539 0c0-3.32 2.416-6.021 5.385-6.021a.753.753 0 100-1.5zm0 0" class="prefix__cls-3" data-name="Path 34" transform="translate(-1.644 -6.976)"/>
            <path id="prefix__Path_35" d="M26.741 22.39a3.352 3.352 0 01-4.671 0 .78.78 0 00-1.088 0 .74.74 0 000 1.064 4.914 4.914 0 006.846 0 .74.74 0 000-1.064.78.78 0 00-1.087 0zm0 0" class="prefix__cls-3" data-name="Path 35" transform="translate(-6.215 -6.975)"/>
        </g>
    </g>
</svg>
