<svg xmlns="http://www.w3.org/2000/svg" width="45" height="45" viewBox="0 0 45 45">
    <defs>
        <clipPath id="prefix__clip-path">
            <path id="prefix__Rectangle_17" d="M0 0H45V45H0z" class="prefix__cls-1" data-name="Rectangle 17"/>
        </clipPath>
        <style>
            .prefix__cls-1{fill:#707070}
        </style>
    </defs>
    <g id="prefix__Mask_Group_4" data-name="Mask Group 4">
        <g id="prefix__pan" transform="translate(0 7.148)">
            <g id="prefix__Group_50" data-name="Group 50">
                <path id="prefix__Path_22" d="M39.725 16.679a.763.763 0 00-.155-.1.778.778 0 00-.1-.061.7.7 0 00-.079-.012.751.751 0 00-.207-.031q-.141.03-.28.066a.746.746 0 00-.184.13c-.016.015-.037.021-.052.037a.78.78 0 00-.074.118.763.763 0 00-.084.137l-.042.115a21.579 21.579 0 00-2.554-1.757l.239-.658a.693.693 0 00.012-.078.721.721 0 00.023-.149.713.713 0 00-.008-.141.731.731 0 00-.034-.137.763.763 0 00-.146-.237l-.171-.155a23.246 23.246 0 00-3.48-1.682H32.336a.71.71 0 00-.158-.024.778.778 0 00-.127-.019.735.735 0 00-.174.04.37.37 0 00-.236.117.724.724 0 00-.1.075.766.766 0 00-.086.135.707.707 0 00-.071.111v.014l-.229.629a25.514 25.514 0 00-2.9-.781l.214-.586a.7.7 0 00.019-.127.723.723 0 00.026-.13v-.02a.716.716 0 00-.018-.1.75.75 0 00-.042-.168 1.256 1.256 0 00-.15-.225.849.849 0 00-.229-.16c-.019-.009-.032-.025-.053-.032s-.034 0-.051-.008-.039-.019-.061-.024a26.9 26.9 0 00-3.9-.471c-.012 0-.022.006-.034.006a.73.73 0 00-.2.034c-.023.007-.047.008-.069.017a.739.739 0 00-.2.121c-.013.011-.028.018-.041.03a.731.731 0 00-.117.153.7.7 0 00-.058.095c-.006.014-.017.023-.022.037l-.355.974a30.135 30.135 0 00-3.246.135l.157-.43v-.024a2.052 2.052 0 00.035-.3v-.026a.728.728 0 00-.035-.105.739.739 0 00-.048-.146 1.688 1.688 0 00-.176-.223.733.733 0 00-.143-.087.712.712 0 00-.086-.052h-.024a.754.754 0 00-.148-.023.74.74 0 00-.149-.012h-.026a26.2 26.2 0 00-4.417.927c-.017.005-.029.018-.046.025a.809.809 0 00-.415.393c-.007.016-.021.027-.027.044l-.494 1.359A24.5 24.5 0 009.8 14.923v-.013a.843.843 0 00-.059-.569c-.007-.013-.007-.027-.015-.039a.694.694 0 00-.063-.068 1.47 1.47 0 00-.319-.243c-.014-.005-.028 0-.042-.006a.851.851 0 00-.565.057c-.014.007-.029.007-.043.016C3.17 17.47 0 22.637 0 28.234c0 .271.008.535.024.784C.474 37.1 7.826 41.029 22.5 41.029S44.526 37.1 44.976 28.968V28.923c.014-.227.023-.454.023-.689a15.934 15.934 0 00-5.274-11.555zm-1.807 1.907l-1.256 3.457a1.5 1.5 0 01-2.822-1.029l1.549-4.254a19.718 19.718 0 012.529 1.826zm-7.287-4.02l-2.723 7.481a1.5 1.5 0 11-2.813-1.033l2.626-7.214a24.075 24.075 0 012.91.765zm-11.557-1.058a26.481 26.481 0 013.277-.22l-3.188 8.755a1.5 1.5 0 11-2.822-1.029zm-11.485 7.5l1.4-3.86a22.021 22.021 0 013.95-2.071l-2.533 6.961a1.5 1.5 0 01-2.823-1.026zm-.016-4.341L6.179 20.5a3 3 0 005.641 2.054l3.565-9.8a24.7 24.7 0 012.581-.591L14.933 20.5a3 3 0 005.64 2.059l3.892-10.69c.757.052 1.514.14 2.27.261l-3.05 8.37a3 3 0 105.632 2.059L32.3 14.37v-.011l.207-.57a21.681 21.681 0 012.008.976L32.428 20.5a3 3 0 005.641 2.054l1.431-3.947a14.613 14.613 0 013.806 7.546C42.174 32.375 35.37 35.4 22.5 35.4c-12.9 0-19.709-3.039-20.821-9.29a15.247 15.247 0 015.894-9.439zM22.5 39.529c-12.919 0-19.753-3.076-20.839-9.392C4.6 34.677 11.463 36.9 22.5 36.9s17.905-2.227 20.839-6.768c-1.082 6.319-7.916 9.397-20.839 9.397z" class="prefix__cls-1" data-name="Path 22" transform="translate(0 -10.324)"/>
            </g>
        </g>
    </g>
</svg>
