<svg xmlns="http://www.w3.org/2000/svg" width="45" height="45" viewBox="0 0 45 45">
    <defs>
        <clipPath id="prefix__clip-path">
            <path id="prefix__Rectangle_17" d="M0 0H45V45H0z" class="prefix__cls-1" data-name="Rectangle 17"/>
        </clipPath>
        <style>
            .prefix__cls-1{fill:#707070}
        </style>
    </defs>
    <g id="prefix__Mask_Group_3" data-name="Mask Group 3">
        <g id="prefix__soda" transform="translate(11.254)">
            <g id="prefix__Group_35" data-name="Group 35">
                <g id="prefix__Group_34" data-name="Group 34">
                    <path id="prefix__Path_14" d="M35.458 10.218a11.221 11.221 0 00-2.3-1.8A2.344 2.344 0 0132 6.41v-1.1a1.5 1.5 0 001.5-1.5V1.5A1.5 1.5 0 0032 0h-9a1.5 1.5 0 00-1.5 1.5v2.314a1.5 1.5 0 001.5 1.5v1.1a2.288 2.288 0 01-1.109 1.978 11.494 11.494 0 00-5.638 9.9v22.747a3.9 3.9 0 003.374 3.923q.193.019.385.019a3.673 3.673 0 002.484-.962 3.831 3.831 0 001.254-2.838 3.749 3.749 0 007.5.141v-.141a3.831 3.831 0 001.25 2.838 3.684 3.684 0 002.869.943 3.9 3.9 0 003.374-3.923V18.3a11.478 11.478 0 00-3.285-8.082zM23 1.5h2.249v.776a.75.75 0 001.5 0V1.5h1.5v.776a.75.75 0 001.5 0V1.5H32v2.314h-9zm-.352 8.188A3.793 3.793 0 0024.5 6.415v-1.1h6v1.1a3.849 3.849 0 001.894 3.3 9.733 9.733 0 011.994 1.56 10.036 10.036 0 011.427 1.864l-2.333-.89a4.408 4.408 0 00-4.345.7 2.886 2.886 0 01-3.462.153l-.747-.507a4.419 4.419 0 00-3.879-.528l-1.5.508a9.805 9.805 0 013.103-2.887zm-4.9 8.607a10.048 10.048 0 01.764-3.838.729.729 0 00.227-.029l2.784-.944a2.873 2.873 0 012.555.349l.747.507a4.376 4.376 0 005.251-.231 2.909 2.909 0 012.864-.466l3.767 1.437a10.082 10.082 0 01.533 3.215v.013H17.756zm0 1.513h19.5v5.366h-5.314a4.482 4.482 0 00-8.864 0h-5.314v-5.366zM30.5 25.924a3 3 0 11-3-3.065 3.035 3.035 0 013 3.065zm-12.745.75h5.315a4.482 4.482 0 008.864 0h5.314v5.366H17.756zm17.467 16.8a2.186 2.186 0 01-1.713-.563 2.329 2.329 0 01-.761-1.726 1.5 1.5 0 00-3-.1 2.492 2.492 0 01-1.178 2.152 2.276 2.276 0 01-3.321-2.05 1.5 1.5 0 10-3-.027v.027a2.329 2.329 0 01-.761 1.726 2.2 2.2 0 01-1.713.563 2.385 2.385 0 01-2.024-2.431v-7.5h19.497v7.5a2.385 2.385 0 01-2.025 2.425z" class="prefix__cls-1" data-name="Path 14" transform="translate(-16.256)"/>
                </g>
            </g>
            <g id="prefix__Group_37" data-name="Group 37" transform="translate(3.749 35.853)">
                <g id="prefix__Group_36" data-name="Group 36">
                    <path id="prefix__Path_15" d="M22.95 52.006a.75.75 0 00-.814-.161.683.683 0 00-.247.165.743.743 0 00-.158.24.757.757 0 00-.06.292.781.781 0 00.06.285.741.741 0 00.158.24.682.682 0 00.247.165.749.749 0 00.285.06.763.763 0 00.532-.225.75.75 0 00-.003-1.061z" class="prefix__cls-1" data-name="Path 15" transform="translate(-21.671 -51.788)"/>
                </g>
            </g>
            <g id="prefix__Group_39" data-name="Group 39" transform="translate(3.749 15.271)">
                <g id="prefix__Group_38" data-name="Group 38">
                    <path id="prefix__Path_16" d="M22.405 22.059a.742.742 0 00-.517 1.267.789.789 0 00.532.217.742.742 0 10-.016-1.484z" class="prefix__cls-1" data-name="Path 16" transform="translate(-21.671 -22.059)"/>
                </g>
            </g>
            <g id="prefix__Group_41" data-name="Group 41" transform="translate(15.744 15.259)">
                <g id="prefix__Group_40" data-name="Group 40">
                    <path id="prefix__Path_17" d="M40.279 22.255a.871.871 0 00-.247-.157.75.75 0 00-.57 0 .871.871 0 00-.247.157.761.761 0 000 1.065.87.87 0 00.247.157.71.71 0 00.57 0 .873.873 0 00.247-.157l.09-.113a.57.57 0 00.068-.135.489.489 0 00.045-.135 1.05 1.05 0 00.015-.15.789.789 0 00-.218-.532z" class="prefix__cls-1" data-name="Path 17" transform="translate(-38.997 -22.041)"/>
                </g>
            </g>
            <g id="prefix__Group_43" data-name="Group 43" transform="translate(6.748 34.332)">
                <g id="prefix__Group_42" data-name="Group 42">
                    <path id="prefix__Path_18" d="M27.442 50.051a.782.782 0 00-.157-.247.871.871 0 00-.247-.157.753.753 0 00-.57 0 .678.678 0 00-.4.4.749.749 0 00-.06.285.788.788 0 00.217.532.774.774 0 00.247.157.706.706 0 00.57 0 .873.873 0 00.247-.157.79.79 0 00.217-.532.631.631 0 00-.064-.281z" class="prefix__cls-1" data-name="Path 18" transform="translate(-26.003 -49.59)"/>
                </g>
            </g>
            <g id="prefix__Group_45" data-name="Group 45" transform="translate(9.746 37.389)">
                <g id="prefix__Group_44" data-name="Group 44">
                    <path id="prefix__Path_19" d="M31.616 54.214a.787.787 0 00-1.065 0 .75.75 0 101.065 0z" class="prefix__cls-1" data-name="Path 19" transform="translate(-30.334 -54.007)"/>
                </g>
            </g>
            <g id="prefix__Group_47" data-name="Group 47" transform="translate(14.244 34.326)">
                <g id="prefix__Group_46" data-name="Group 46">
                    <path id="prefix__Path_20" d="M38.271 50.048a.782.782 0 00-.157-.247 1.27 1.27 0 00-.112-.09.571.571 0 00-.135-.068.473.473 0 00-.135-.045.669.669 0 00-.3 0 .477.477 0 00-.135.045.424.424 0 00-.127.068.718.718 0 00-.12.09.776.776 0 00-.158.247.749.749 0 00-.06.285.788.788 0 00.217.532.694.694 0 00.12.09.423.423 0 00.127.068.489.489 0 00.135.045 1.161 1.161 0 00.15.015.743.743 0 00.75-.735v-.014a.751.751 0 00-.06-.286z" class="prefix__cls-1" data-name="Path 20" transform="translate(-36.831 -49.582)"/>
                </g>
            </g>
            <g id="prefix__Group_49" data-name="Group 49" transform="translate(17.243 37.377)">
                <g id="prefix__Group_48" data-name="Group 48">
                    <path id="prefix__Path_21" d="M42.445 54.208a.775.775 0 00-.247-.157.685.685 0 00-.57 0 .771.771 0 00-.247.157.76.76 0 000 1.065.865.865 0 00.247.157.706.706 0 00.57 0 .777.777 0 00.247-.157.76.76 0 000-1.065z" class="prefix__cls-1" data-name="Path 21" transform="translate(-41.163 -53.989)"/>
                </g>
            </g>
        </g>
    </g>
</svg>
