<svg xmlns="http://www.w3.org/2000/svg" width="45" height="45" viewBox="0 0 45 45">
    <defs>
        <clipPath id="prefix__clip-path">
            <path id="prefix__Rectangle_17" d="M0 0H45V45H0z" class="prefix__cls-1" data-name="Rectangle 17" transform="translate(483 875)"/>
        </clipPath>
        <style>
            .prefix__cls-1{fill:#707070}
        </style>
    </defs>
    <g id="prefix__Mask_Group_1" data-name="Mask Group 1" transform="translate(-483 -875)">
        <g id="prefix__brocoli" transform="translate(483 875.001)">
            <g id="prefix__Group_11" data-name="Group 11">
                <g id="prefix__Group_10" data-name="Group 10">
                    <path id="prefix__Path_2" d="M44.919 14.6a8.245 8.245 0 00-7.451-7.065A8.245 8.245 0 0022.5 3.518 8.245 8.245 0 007.531 7.532 8.245 8.245 0 007.1 23.91c1.015 1.044 7.9 8.3 7.9 12.84v3A5.256 5.256 0 0020.25 45h4.5A5.256 5.256 0 0030 39.75v-3c0-4.542 6.889-11.8 7.9-12.84a8.245 8.245 0 007.019-9.31zM28.5 36.75v3a3.754 3.754 0 01-3.75 3.75h-4.5a3.754 3.754 0 01-3.75-3.75v-3c0-4.306-4.984-10.262-7.31-12.807a8.237 8.237 0 002.431-.672l3.909 5.684a2.944 2.944 0 002.443 1.308 3.092 3.092 0 00.918-.141 2.936 2.936 0 002.082-2.516 8.131 8.131 0 003.054 0 2.936 2.936 0 002.082 2.516 3.092 3.092 0 00.918.141 2.944 2.944 0 002.443-1.308l3.909-5.684a8.236 8.236 0 002.431.672c-2.327 2.545-7.31 8.501-7.31 12.807zM12.927 22.525a8.318 8.318 0 001.5-1.314A8.277 8.277 0 0019.5 27.18v.076a1.5 1.5 0 01-2.735.85zm12.573 4.73v-.075a8.276 8.276 0 005.071-5.968 8.315 8.315 0 001.5 1.314l-3.838 5.58a1.5 1.5 0 01-2.734-.85zM36.749 22.5a6.792 6.792 0 01-6.1-3.848.789.789 0 00-1.237-.191.75.75 0 00-.194.572c.013.151.027.309.027.467a6.75 6.75 0 01-13.5 0c0-.158.014-.316.027-.467a.75.75 0 00-.681-.812h-.066a.763.763 0 00-.684.434A6.75 6.75 0 118.25 9 .75.75 0 009 8.252a6.748 6.748 0 0112.825-2.936.781.781 0 001.35 0A6.748 6.748 0 0136 8.251a.75.75 0 00.75.75 6.75 6.75 0 010 13.5z" class="prefix__cls-1" data-name="Path 2" transform="translate(0 -.001)"/>
                </g>
            </g>
            <g id="prefix__Group_13" data-name="Group 13" transform="translate(12.806 9.7)">
                <g id="prefix__Group_12" data-name="Group 12">
                    <path id="prefix__Path_3" d="M19.776 14.228a.75.75 0 00-1.061 1.061 6.724 6.724 0 011.977 4.773.75.75 0 001.5 0 8.226 8.226 0 00-2.416-5.834z" class="prefix__cls-1" data-name="Path 3" transform="translate(-18.498 -14.012)"/>
                </g>
            </g>
            <g id="prefix__Group_15" data-name="Group 15" transform="translate(28.499 9.7)">
                <g id="prefix__Group_14" data-name="Group 14">
                    <path id="prefix__Path_4" d="M44.637 14.228a.75.75 0 00-1.055 0 8.228 8.228 0 00-2.416 5.834.75.75 0 101.5 0 6.723 6.723 0 011.977-4.773.75.75 0 00-.006-1.061z" class="prefix__cls-1" data-name="Path 4" transform="translate(-41.166 -14.011)"/>
                </g>
            </g>
        </g>
    </g>
</svg>
